<svg version="1.1" id="Layer_1" xmlns="http://www.w3.org/2000/svg" xmlns:xlink="http://www.w3.org/1999/xlink" x="0px" y="0px"
	 width="100%" viewBox="0 0 500 500" enable-background="new 0 0 500 500" xml:space="preserve">
<path fill="#FEFFFF" opacity="1.000000" stroke="none" 
	d="
M276.000000,501.000000 
	C184.000015,501.000000 92.500046,501.000000 1.000049,501.000000 
	C1.000033,334.333405 1.000033,167.666794 1.000016,1.000139 
	C167.666565,1.000092 334.333130,1.000092 500.999756,1.000046 
	C500.999847,167.666519 500.999847,334.333038 500.999939,500.999786 
	C426.166656,501.000000 351.333344,501.000000 276.000000,501.000000 
M143.970459,441.461151 
	C178.074356,410.142822 217.676163,389.078125 263.104065,380.266907 
	C282.109619,376.580566 301.729584,375.847687 321.116364,374.382660 
	C371.256165,370.593689 410.588684,328.996735 410.960358,278.728882 
	C411.150055,253.073593 411.062988,227.415451 410.943329,201.759338 
	C410.919312,196.612320 410.531342,191.412720 409.718842,186.332108 
	C402.025543,138.225250 362.352783,104.191360 313.370758,104.048424 
	C247.896774,103.857361 182.421783,104.006790 116.947212,103.998413 
	C99.265480,103.996147 82.571732,108.001976 67.458290,117.227615 
	C37.629879,135.435669 20.860933,162.097702 19.432362,197.067276 
	C18.365683,223.178207 19.181910,249.371414 19.402552,275.525909 
	C19.458509,282.158997 20.021957,288.851013 21.066467,295.402069 
	C27.262589,334.263702 60.566357,367.248688 99.531052,373.075134 
	C107.839539,374.317505 116.278587,374.686798 124.929085,375.483307 
	C124.929085,389.490662 124.929092,403.461945 124.929092,417.433197 
	C124.929092,431.327209 124.929085,445.221191 124.929085,459.115204 
	C125.403130,459.393494 125.877174,459.671814 126.351219,459.950134 
	C132.053024,453.950623 137.754822,447.951141 143.970459,441.461151 
M352.456329,94.918564 
	C400.778870,114.761536 426.999481,153.810120 426.999969,205.931580 
	C427.000153,225.929398 427.000000,245.927200 427.000000,265.925018 
	C427.000000,267.507324 427.000000,269.089600 427.000000,270.706238 
	C427.857758,270.663086 428.227203,270.750946 428.477814,270.616791 
	C460.417908,253.521011 479.446014,227.039169 481.613434,190.890152 
	C483.385468,161.335556 483.013367,131.539001 481.649017,101.939285 
	C480.047485,67.193985 462.933533,40.821354 433.044525,22.919638 
	C417.294464,13.486288 400.008453,10.255838 381.861877,10.302672 
	C344.366211,10.399446 306.870056,10.277748 269.374268,10.348813 
	C240.383194,10.403760 211.365372,9.880463 182.408447,10.946112 
	C147.401230,12.234419 121.273735,29.436922 103.350456,59.226841 
	C97.609505,68.768761 93.785957,79.121880 92.314323,90.111183 
	C101.324150,89.439194 109.924347,88.262321 118.527344,88.241440 
	C183.019913,88.084892 247.513046,88.128769 312.005951,88.179092 
	C325.571655,88.189682 338.899139,89.935562 352.456329,94.918564 
M243.063766,476.350372 
	C245.832489,469.356354 245.765686,462.412994 242.399765,455.656799 
	C239.821503,450.481628 235.661209,447.615601 229.692932,447.750427 
	C223.665039,447.886597 219.124115,450.948700 217.753494,456.478485 
	C216.404739,461.920074 215.924896,467.913239 216.670029,473.448120 
	C217.505600,479.654724 221.412262,484.286530 228.367630,485.211853 
	C235.261002,486.128937 239.778397,482.958405 243.063766,476.350372 
M312.110565,480.379333 
	C312.086060,476.217133 312.282410,472.039307 311.989716,467.896057 
	C311.432617,460.009857 304.833496,456.373840 297.695496,459.821289 
	C296.906830,460.202209 296.082886,460.510162 294.725800,461.084473 
	C294.725800,456.416351 294.725800,452.324554 294.725800,448.381226 
	C292.545441,448.381226 290.773468,448.381226 288.942017,448.381226 
	C288.942017,460.689972 288.942017,472.736755 288.942017,484.821106 
	C291.053406,484.821106 292.828613,484.821106 295.111542,484.821106 
	C295.111542,480.019226 294.917480,475.383301 295.173279,470.772308 
	C295.376068,467.117279 297.141541,464.122925 301.267029,464.277008 
	C305.248260,464.425659 305.697723,467.734955 305.759186,470.851959 
	C305.849945,475.458435 305.782623,480.067993 305.782623,485.109650 
	C308.786041,484.491760 312.707489,486.863556 312.110565,480.379333 
M174.418686,484.296356 
	C180.539734,486.421570 186.058624,485.902679 190.940964,480.736816 
	C189.400421,479.439728 188.170639,478.404297 187.012451,477.429169 
	C179.418991,481.200317 176.231598,480.389679 174.323151,473.960754 
	C180.181564,473.960754 185.922974,473.960754 191.608963,473.960754 
	C192.453339,465.394989 189.130127,459.991272 182.579300,458.777344 
	C176.152878,457.586456 170.597015,460.419647 168.288177,466.065033 
	C165.530640,472.807526 167.566711,479.514191 174.418686,484.296356 
M324.075287,485.317810 
	C327.336243,484.633575 330.597198,483.949371 333.178619,483.407745 
	C335.253510,484.107269 337.163422,484.751190 339.689392,485.602814 
	C339.689392,479.327881 339.916687,474.022552 339.627502,468.745514 
	C339.319183,463.119324 336.449890,459.925842 331.482544,458.838898 
	C325.566528,457.544373 320.943817,459.459869 317.958466,464.565552 
	C319.299988,465.471497 320.650696,466.383606 321.935669,467.251312 
	C328.361572,462.469574 331.919159,463.053131 332.936676,469.145935 
	C330.298798,469.322144 327.674957,469.465973 325.056793,469.679352 
	C320.803680,470.026062 316.941986,471.151367 316.545380,476.251251 
	C316.172607,481.044434 318.494110,484.156921 324.075287,485.317810 
M275.551697,485.114288 
	C278.293243,483.129486 281.034760,481.144684 284.862213,478.373718 
	C281.376801,477.048096 279.746124,476.427917 278.104889,475.803680 
	C275.500214,479.325317 272.639435,481.348633 268.821655,478.185547 
	C265.786316,475.670715 265.760101,468.559357 268.770630,465.892761 
	C272.801910,462.322021 275.640350,465.016327 278.320068,468.364105 
	C280.179138,467.524902 281.876099,466.758820 285.258148,465.232086 
	C281.237122,462.565918 278.697784,460.040649 275.659790,459.059326 
	C270.741486,457.470703 265.990814,458.719299 262.803955,463.173431 
	C259.195831,468.216278 258.922516,473.733429 261.754150,479.198029 
	C264.480743,484.459869 269.172424,485.986511 275.551697,485.114288 
M153.051361,467.393951 
	C149.228958,473.177490 141.888184,476.617065 140.813538,484.738159 
	C148.946152,484.738159 156.368942,484.738159 164.093063,484.738159 
	C163.983261,482.902588 163.890823,481.357147 163.775391,479.427460 
	C159.212708,479.427460 155.151489,479.427460 150.908035,479.427460 
	C154.621887,472.001038 163.294785,468.317627 164.372437,459.317444 
	C156.512817,459.317444 149.274338,459.317444 141.847641,459.317444 
	C141.976242,461.088531 142.080170,462.519684 142.213593,464.357300 
	C146.559738,464.357300 150.618790,464.357300 155.306076,464.357300 
	C154.452057,465.591278 154.011963,466.227142 153.051361,467.393951 
M360.394989,480.309784 
	C359.422577,480.155121 358.278351,480.270569 357.516052,479.785645 
	C356.211670,478.955872 354.259583,477.841064 354.141174,476.685883 
	C353.727173,472.646637 353.980774,468.538940 353.980774,464.454163 
	C356.414734,464.274780 358.196167,464.143494 360.126709,464.001221 
	C360.126709,462.273346 360.126709,460.723114 360.126709,459.202850 
	C357.894379,459.011230 355.990021,458.847748 353.800049,458.659760 
	C353.800049,455.232788 353.800049,452.161896 353.800049,449.009399 
	C348.182312,450.171722 347.290741,454.093506 347.620514,458.662170 
	C346.076965,458.909180 344.833374,459.108185 342.641632,459.458954 
	C343.489990,461.337311 344.049164,463.939575 344.794769,463.994110 
	C348.347137,464.254028 347.544403,466.654297 347.609161,468.664856 
	C347.726593,472.310394 347.432983,476.005280 347.930695,479.593597 
	C348.583771,484.302216 352.235931,485.388733 356.395386,485.456543 
	C359.452393,485.506348 361.070221,484.321503 360.394989,480.309784 
M211.935608,458.742950 
	C209.301224,459.298035 206.666824,459.853119 205.269653,460.147522 
	C202.121811,459.586670 199.879364,459.187103 197.443665,458.753143 
	C197.443665,467.962067 197.443665,476.364655 197.443665,484.810089 
	C199.509125,484.810089 201.286026,484.810089 203.645386,484.810089 
	C203.645386,480.468414 203.400330,476.317047 203.712799,472.208069 
	C204.039627,467.910431 205.451401,464.439941 211.034149,464.829956 
	C212.135223,464.906921 213.569199,462.802856 214.457886,461.447693 
	C214.669693,461.124725 213.306793,459.769135 211.935608,458.742950 
z"/>
<path fill="#003366" opacity="1.000000" stroke="none" 
	d="
M143.713531,441.706390 
	C137.754822,447.951141 132.053024,453.950623 126.351219,459.950134 
	C125.877174,459.671814 125.403130,459.393494 124.929085,459.115204 
	C124.929085,445.221191 124.929092,431.327209 124.929092,417.433197 
	C124.929092,403.461945 124.929085,389.490662 124.929085,375.483307 
	C116.278587,374.686798 107.839539,374.317505 99.531052,373.075134 
	C60.566357,367.248688 27.262589,334.263702 21.066467,295.402069 
	C20.021957,288.851013 19.458509,282.158997 19.402552,275.525909 
	C19.181910,249.371414 18.365683,223.178207 19.432362,197.067276 
	C20.860933,162.097702 37.629879,135.435669 67.458290,117.227615 
	C82.571732,108.001976 99.265480,103.996147 116.947212,103.998413 
	C182.421783,104.006790 247.896774,103.857361 313.370758,104.048424 
	C362.352783,104.191360 402.025543,138.225250 409.718842,186.332108 
	C410.531342,191.412720 410.919312,196.612320 410.943329,201.759338 
	C411.062988,227.415451 411.150055,253.073593 410.960358,278.728882 
	C410.588684,328.996735 371.256165,370.593689 321.116364,374.382660 
	C301.729584,375.847687 282.109619,376.580566 263.104065,380.266907 
	C217.676163,389.078125 178.074356,410.142822 143.713531,441.706390 
z"/>
<path fill="#01E4E3" opacity="1.000000" stroke="none" 
	d="
M352.084839,94.797546 
	C338.899139,89.935562 325.571655,88.189682 312.005951,88.179092 
	C247.513046,88.128769 183.019913,88.084892 118.527344,88.241440 
	C109.924347,88.262321 101.324150,89.439194 92.314323,90.111183 
	C93.785957,79.121880 97.609505,68.768761 103.350456,59.226841 
	C121.273735,29.436922 147.401230,12.234419 182.408447,10.946112 
	C211.365372,9.880463 240.383194,10.403760 269.374268,10.348813 
	C306.870056,10.277748 344.366211,10.399446 381.861877,10.302672 
	C400.008453,10.255838 417.294464,13.486288 433.044525,22.919638 
	C462.933533,40.821354 480.047485,67.193985 481.649017,101.939285 
	C483.013367,131.539001 483.385468,161.335556 481.613434,190.890152 
	C479.446014,227.039169 460.417908,253.521011 428.477814,270.616791 
	C428.227203,270.750946 427.857758,270.663086 427.000000,270.706238 
	C427.000000,269.089600 427.000000,267.507324 427.000000,265.925018 
	C427.000000,245.927200 427.000153,225.929398 426.999969,205.931580 
	C426.999481,153.810120 400.778870,114.761536 352.084839,94.797546 
z"/>
<path fill="#08396B" opacity="1.000000" stroke="none" 
	d="
M242.930908,476.710999 
	C239.778397,482.958405 235.261002,486.128937 228.367630,485.211853 
	C221.412262,484.286530 217.505600,479.654724 216.670029,473.448120 
	C215.924896,467.913239 216.404739,461.920074 217.753494,456.478485 
	C219.124115,450.948700 223.665039,447.886597 229.692932,447.750427 
	C235.661209,447.615601 239.821503,450.481628 242.399765,455.656799 
	C245.765686,462.412994 245.832489,469.356354 242.930908,476.710999 
M226.673828,478.131104 
	C232.039124,479.921631 235.707306,478.806854 236.665115,473.659058 
	C237.566742,468.813202 237.198044,463.499512 236.181412,458.644318 
	C235.785477,456.753387 232.138901,454.468201 229.882660,454.366516 
	C227.918457,454.277954 224.883286,456.576782 223.965057,458.575714 
	C220.946167,465.147614 220.954483,471.797546 226.673828,478.131104 
z"/>
<path fill="#043668" opacity="1.000000" stroke="none" 
	d="
M312.110474,480.861023 
	C312.707489,486.863556 308.786041,484.491760 305.782623,485.109650 
	C305.782623,480.067993 305.849945,475.458435 305.759186,470.851959 
	C305.697723,467.734955 305.248260,464.425659 301.267029,464.277008 
	C297.141541,464.122925 295.376068,467.117279 295.173279,470.772308 
	C294.917480,475.383301 295.111542,480.019226 295.111542,484.821106 
	C292.828613,484.821106 291.053406,484.821106 288.942017,484.821106 
	C288.942017,472.736755 288.942017,460.689972 288.942017,448.381226 
	C290.773468,448.381226 292.545441,448.381226 294.725800,448.381226 
	C294.725800,452.324554 294.725800,456.416351 294.725800,461.084473 
	C296.082886,460.510162 296.906830,460.202209 297.695496,459.821289 
	C304.833496,456.373840 311.432617,460.009857 311.989716,467.896057 
	C312.282410,472.039307 312.086060,476.217133 312.110474,480.861023 
z"/>
<path fill="#0B3C6D" opacity="1.000000" stroke="none" 
	d="
M174.073517,484.140320 
	C167.566711,479.514191 165.530640,472.807526 168.288177,466.065033 
	C170.597015,460.419647 176.152878,457.586456 182.579300,458.777344 
	C189.130127,459.991272 192.453339,465.394989 191.608963,473.960754 
	C185.922974,473.960754 180.181564,473.960754 174.323151,473.960754 
	C176.231598,480.389679 179.418991,481.200317 187.012451,477.429169 
	C188.170639,478.404297 189.400421,479.439728 190.940964,480.736816 
	C186.058624,485.902679 180.539734,486.421570 174.073517,484.140320 
M178.499191,469.444305 
	C180.702988,469.444305 182.906799,469.444305 185.396896,469.444305 
	C184.833481,465.396942 182.979996,463.932953 179.916687,463.955505 
	C176.651138,463.979553 174.748688,465.564758 174.442719,469.111023 
	C175.597916,469.234863 176.562775,469.338318 178.499191,469.444305 
z"/>
<path fill="#0D3D6E" opacity="1.000000" stroke="none" 
	d="
M323.699829,485.251221 
	C318.494110,484.156921 316.172607,481.044434 316.545380,476.251251 
	C316.941986,471.151367 320.803680,470.026062 325.056793,469.679352 
	C327.674957,469.465973 330.298798,469.322144 332.936676,469.145935 
	C331.919159,463.053131 328.361572,462.469574 321.935669,467.251312 
	C320.650696,466.383606 319.299988,465.471497 317.958466,464.565552 
	C320.943817,459.459869 325.566528,457.544373 331.482544,458.838898 
	C336.449890,459.925842 339.319183,463.119324 339.627502,468.745514 
	C339.916687,474.022552 339.689392,479.327881 339.689392,485.602814 
	C337.163422,484.751190 335.253510,484.107269 333.178619,483.407745 
	C330.597198,483.949371 327.336243,484.633575 323.699829,485.251221 
M323.215820,478.246826 
	C327.868622,481.551361 331.760895,479.996185 333.001648,474.016479 
	C329.480133,474.914551 324.863495,471.727020 323.215820,478.246826 
z"/>
<path fill="#0C3C6D" opacity="1.000000" stroke="none" 
	d="
M275.175537,485.186279 
	C269.172424,485.986511 264.480743,484.459869 261.754150,479.198029 
	C258.922516,473.733429 259.195831,468.216278 262.803955,463.173431 
	C265.990814,458.719299 270.741486,457.470703 275.659790,459.059326 
	C278.697784,460.040649 281.237122,462.565918 285.258148,465.232086 
	C281.876099,466.758820 280.179138,467.524902 278.320068,468.364105 
	C275.640350,465.016327 272.801910,462.322021 268.770630,465.892761 
	C265.760101,468.559357 265.786316,475.670715 268.821655,478.185547 
	C272.639435,481.348633 275.500214,479.325317 278.104889,475.803680 
	C279.746124,476.427917 281.376801,477.048096 284.862213,478.373718 
	C281.034760,481.144684 278.293243,483.129486 275.175537,485.186279 
z"/>
<path fill="#043769" opacity="1.000000" stroke="none" 
	d="
M153.311615,467.128479 
	C154.011963,466.227142 154.452057,465.591278 155.306076,464.357300 
	C150.618790,464.357300 146.559738,464.357300 142.213593,464.357300 
	C142.080170,462.519684 141.976242,461.088531 141.847641,459.317444 
	C149.274338,459.317444 156.512817,459.317444 164.372437,459.317444 
	C163.294785,468.317627 154.621887,472.001038 150.908035,479.427460 
	C155.151489,479.427460 159.212708,479.427460 163.775391,479.427460 
	C163.890823,481.357147 163.983261,482.902588 164.093063,484.738159 
	C156.368942,484.738159 148.946152,484.738159 140.813538,484.738159 
	C141.888184,476.617065 149.228958,473.177490 153.311615,467.128479 
z"/>
<path fill="#07386A" opacity="1.000000" stroke="none" 
	d="
M360.422546,480.674225 
	C361.070221,484.321503 359.452393,485.506348 356.395386,485.456543 
	C352.235931,485.388733 348.583771,484.302216 347.930695,479.593597 
	C347.432983,476.005280 347.726593,472.310394 347.609161,468.664856 
	C347.544403,466.654297 348.347137,464.254028 344.794769,463.994110 
	C344.049164,463.939575 343.489990,461.337311 342.641632,459.458954 
	C344.833374,459.108185 346.076965,458.909180 347.620514,458.662170 
	C347.290741,454.093506 348.182312,450.171722 353.800049,449.009399 
	C353.800049,452.161896 353.800049,455.232788 353.800049,458.659760 
	C355.990021,458.847748 357.894379,459.011230 360.126709,459.202850 
	C360.126709,460.723114 360.126709,462.273346 360.126709,464.001221 
	C358.196167,464.143494 356.414734,464.274780 353.980774,464.454163 
	C353.980774,468.538940 353.727173,472.646637 354.141174,476.685883 
	C354.259583,477.841064 356.211670,478.955872 357.516052,479.785645 
	C358.278351,480.270569 359.422577,480.155121 360.422546,480.674225 
z"/>
<path fill="#0E3E6E" opacity="1.000000" stroke="none" 
	d="
M212.301895,458.815735 
	C213.306793,459.769135 214.669693,461.124725 214.457886,461.447693 
	C213.569199,462.802856 212.135223,464.906921 211.034149,464.829956 
	C205.451401,464.439941 204.039627,467.910431 203.712799,472.208069 
	C203.400330,476.317047 203.645386,480.468414 203.645386,484.810089 
	C201.286026,484.810089 199.509125,484.810089 197.443665,484.810089 
	C197.443665,476.364655 197.443665,467.962067 197.443665,458.753143 
	C199.879364,459.187103 202.121811,459.586670 205.269653,460.147522 
	C206.666824,459.853119 209.301224,459.298035 212.301895,458.815735 
z"/>
<path fill="#F8FAFB" opacity="1.000000" stroke="none" 
	d="
M226.349396,477.912262 
	C220.954483,471.797546 220.946167,465.147614 223.965057,458.575714 
	C224.883286,456.576782 227.918457,454.277954 229.882660,454.366516 
	C232.138901,454.468201 235.785477,456.753387 236.181412,458.644318 
	C237.198044,463.499512 237.566742,468.813202 236.665115,473.659058 
	C235.707306,478.806854 232.039124,479.921631 226.349396,477.912262 
z"/>
<path fill="#F5F7F9" opacity="1.000000" stroke="none" 
	d="
M178.013428,469.443054 
	C176.562775,469.338318 175.597916,469.234863 174.442719,469.111023 
	C174.748688,465.564758 176.651138,463.979553 179.916687,463.955505 
	C182.979996,463.932953 184.833481,465.396942 185.396896,469.444305 
	C182.906799,469.444305 180.702988,469.444305 178.013428,469.443054 
z"/>
<path fill="#F2F4F7" opacity="1.000000" stroke="none" 
	d="
M323.124878,477.852478 
	C324.863495,471.727020 329.480133,474.914551 333.001648,474.016479 
	C331.760895,479.996185 327.868622,481.551361 323.124878,477.852478 
z"/>
</svg>