<svg version="1.1" id="Layer_1" xmlns="http://www.w3.org/2000/svg" xmlns:xlink="http://www.w3.org/1999/xlink" x="0px" y="0px"
	 width="100%" viewBox="0 0 500 500" enable-background="new 0 0 500 500" xml:space="preserve">
<path fill="#FFFFFE" opacity="1.000000" stroke="none" 
	d="
M501.000000,193.000000 
	C501.000000,295.636780 501.000000,398.273560 501.000000,500.955170 
	C334.411743,500.955170 167.823486,500.955170 1.117608,500.955170 
	C1.117608,334.333374 1.117608,167.666702 1.118346,1.000014 
	C59.435368,1.000000 117.751648,1.000000 176.303711,1.316925 
	C169.547455,2.938912 162.373795,3.633382 155.593430,5.650163 
	C117.444984,16.997229 93.417450,42.478031 82.035599,80.289574 
	C81.410652,82.365700 81.278267,84.590103 80.925896,86.690140 
	C90.294411,86.094170 98.899536,85.087547 107.506485,85.071747 
	C177.629318,84.942970 247.753067,84.859955 317.874908,85.153496 
	C328.102722,85.196304 338.580566,86.235741 348.502014,88.635826 
	C402.558990,101.712715 441.087219,151.084885 441.231964,206.690369 
	C441.292694,230.009018 441.240387,253.327957 441.255615,276.646759 
	C441.256653,278.231689 441.393677,279.816559 441.508881,282.291809 
	C477.304230,262.507721 497.274048,233.435272 500.369171,193.071472 
	C500.580383,193.059540 501.000000,193.000000 501.000000,193.000000 
M138.500046,102.774918 
	C137.500595,102.776108 136.499863,102.744270 135.501907,102.783417 
	C119.053581,103.428490 102.209541,102.033020 86.232185,105.120689 
	C39.232922,114.203430 4.660615,152.829926 2.384257,202.401779 
	C0.897085,234.787674 1.856098,267.354462 3.186650,299.780029 
	C4.300381,326.921661 16.862803,349.492889 36.874702,367.527832 
	C57.723717,386.317139 82.734497,394.494049 110.668533,393.762177 
	C114.512299,393.661438 116.145271,394.782898 116.131119,398.688690 
	C116.033333,425.678864 116.020721,452.669312 115.981216,479.659698 
	C115.978966,481.194397 115.980927,482.729126 115.980927,484.263824 
	C116.529243,484.611603 117.077553,484.959351 117.625870,485.307098 
	C124.811920,477.703949 131.450027,469.477661 139.272949,462.598755 
	C190.135742,417.873535 249.517166,394.833771 317.317871,393.906403 
	C333.180267,393.689453 348.500397,391.059174 362.770569,384.061951 
	C398.633575,366.476929 419.977966,337.830933 422.751251,297.933716 
	C424.837830,267.915741 423.738586,237.658142 423.577240,207.509781 
	C423.497498,192.613968 421.006012,177.941696 414.440460,164.381729 
	C394.941132,124.109413 362.640503,103.223824 317.941833,102.880394 
	C258.464478,102.423409 198.980942,102.771828 138.500046,102.774918 
z"/>
<path fill="#FFB155" opacity="1.000000" stroke="none" 
	d="
M500.157959,193.083405 
	C497.274048,233.435272 477.304230,262.507721 441.508881,282.291809 
	C441.393677,279.816559 441.256653,278.231689 441.255615,276.646759 
	C441.240387,253.327957 441.292694,230.009018 441.231964,206.690369 
	C441.087219,151.084885 402.558990,101.712715 348.502014,88.635826 
	C338.580566,86.235741 328.102722,85.196304 317.874908,85.153496 
	C247.753067,84.859955 177.629318,84.942970 107.506485,85.071747 
	C98.899536,85.087547 90.294411,86.094170 80.925896,86.690140 
	C81.278267,84.590103 81.410652,82.365700 82.035599,80.289574 
	C93.417450,42.478031 117.444984,16.997229 155.593430,5.650163 
	C162.373795,3.633382 169.547455,2.938912 176.769745,1.316925 
	C251.020889,1.000000 325.041779,1.000000 399.823181,1.280931 
	C401.563629,1.704955 402.539093,1.913128 403.524231,1.981519 
	C422.839447,3.322438 440.573944,9.301718 456.281860,20.648893 
	C484.280212,40.874397 498.478943,68.588036 500.092651,103.384430 
	C500.066620,133.598007 500.112274,163.340714 500.157959,193.083405 
z"/>
<path fill="#FFFEFE" opacity="1.000000" stroke="none" 
	d="
M500.164368,102.913551 
	C498.478943,68.588036 484.280212,40.874397 456.281860,20.648893 
	C440.573944,9.301718 422.839447,3.322438 403.524231,1.981519 
	C402.539093,1.913128 401.563629,1.704955 400.291840,1.280931 
	C433.593964,1.000000 467.187927,1.000000 501.000000,1.000000 
	C501.000000,34.687248 501.000000,68.374962 500.792297,102.498161 
	C500.584564,102.933640 500.164368,102.913551 500.164368,102.913551 
z"/>
<path fill="#FFE2C0" opacity="1.000000" stroke="none" 
	d="
M500.092651,103.384430 
	C500.164368,102.913551 500.584564,102.933640 500.792297,102.966820 
	C501.000000,132.687561 501.000000,162.375122 501.000000,192.531342 
	C501.000000,193.000000 500.580383,193.059540 500.369141,193.071472 
	C500.112274,163.340714 500.066620,133.598007 500.092651,103.384430 
z"/>
<path fill="#A64905" opacity="1.000000" stroke="none" 
	d="
M139.000061,102.774582 
	C198.980942,102.771828 258.464478,102.423409 317.941833,102.880394 
	C362.640503,103.223824 394.941132,124.109413 414.440460,164.381729 
	C421.006012,177.941696 423.497498,192.613968 423.577240,207.509781 
	C423.738586,237.658142 424.837830,267.915741 422.751251,297.933716 
	C419.977966,337.830933 398.633575,366.476929 362.770569,384.061951 
	C348.500397,391.059174 333.180267,393.689453 317.317871,393.906403 
	C249.517166,394.833771 190.135742,417.873535 139.272949,462.598755 
	C131.450027,469.477661 124.811920,477.703949 117.625870,485.307098 
	C117.077553,484.959351 116.529243,484.611603 115.980927,484.263824 
	C115.980927,482.729126 115.978966,481.194397 115.981216,479.659698 
	C116.020721,452.669312 116.033333,425.678864 116.131119,398.688690 
	C116.145271,394.782898 114.512299,393.661438 110.668533,393.762177 
	C82.734497,394.494049 57.723717,386.317139 36.874702,367.527832 
	C16.862803,349.492889 4.300381,326.921661 3.186650,299.780029 
	C1.856098,267.354462 0.897085,234.787674 2.384257,202.401779 
	C4.660615,152.829926 39.232922,114.203430 86.232185,105.120689 
	C102.209541,102.033020 119.053581,103.428490 135.501907,102.783417 
	C136.499863,102.744270 137.500595,102.776108 139.000061,102.774582 
z"/>
</svg>